<?xml version="1.0" encoding="iso-8859-1"?>
<!-- Generator: Adobe Illustrator 23.0.1, SVG Export Plug-In . SVG Version: 6.00 Build 0)  -->
<svg version="1.1" id="Layer_1" xmlns="http://www.w3.org/2000/svg" xmlns:xlink="http://www.w3.org/1999/xlink" x="0px" y="0px"
	 viewBox="0 0 512 512" style="enable-background:new 0 0 512 512;" xml:space="preserve">
<g>
	<path style="fill:#02AA7C;" d="M322.862,287.563v-69.89h11.852v5.604c3.607-4.509,8.954-6.957,15.588-6.957
		c13.656,0,23.447,10.886,23.447,26.474s-9.855,26.668-23.447,26.668c-6.699,0-11.981-2.577-15.588-7.086v25.186H322.862z
		 M334.715,236.354v12.883c2.512,5.218,7.021,9.018,13.527,9.018c7.859,0,13.141-5.862,13.141-15.524
		c0-9.533-5.282-15.331-13.141-15.331C341.736,227.464,337.227,231.007,334.715,236.354"/>
	<path style="fill:#02AA7C;" d="M381.415,253.617c0-8.503,5.282-14.429,14.042-15.524l20.162-2.577v-2.512
		c0-3.027-1.546-4.638-4.38-4.638h-25.315v-10.757h25.766c10.242,0,15.846,5.024,15.846,13.914v36.394h-11.981v-6.119
		c-3.478,4.896-9.211,7.665-16.619,7.665C388.501,269.463,381.415,263.086,381.415,253.617 M401.834,259.8
		c6.055,0,11.659-3.414,13.72-8.438v-6.313l-15.395,2.126c-4.251,0.58-6.635,2.834-6.635,6.506
		C393.525,257.61,396.552,259.8,401.834,259.8"/>
	<path style="fill:#02AA7C;" d="M436.167,276.806h8.632c3.285,0,4.767-1.353,5.862-4.445l1.546-4.445l-18.294-50.308h12.368
		l11.401,35.042h0.258l10.886-35.042H481l-20.033,57.78c-2.705,7.923-6.313,12.174-15.137,12.174h-9.662L436.167,276.806
		L436.167,276.806z"/>
	<path style="fill:#502C84;" d="M74.48,322.154c13.785,0,25.122-4.316,32.594-11.53c5.604-5.54,8.889-13.012,8.889-21.643
		c0-7.794-2.899-14.815-8.245-20.162s-13.012-9.276-22.674-11.144l-15.846-3.092c-6.57-1.224-10.306-4.509-10.306-9.082
		c0-5.991,5.797-10.113,15.073-10.113c5.797,0,10.757,1.868,14.042,5.153c2.061,2.255,3.478,5.153,3.929,8.438l22.867-5.153
		c-0.644-6.57-3.736-12.368-8.438-17.134c-7.536-7.408-19.067-12.11-32.658-12.11c-12.561,0-23.06,4.123-30.339,10.693
		c-6.184,5.797-9.662,13.591-9.662,22.287c0,7.601,2.448,14.042,7.408,18.938c4.96,4.96,12.174,8.632,21.643,10.95l15.653,3.736
		c7.859,1.868,11.337,4.767,11.337,9.92c0,6.377-5.797,10.113-15.266,10.113c-6.828,0-12.368-2.255-15.846-5.991
		c-2.448-2.448-3.929-5.797-4.123-9.469L31,290.913c0.644,7.021,3.929,13.205,8.889,18.165
		C47.683,317.258,60.309,322.154,74.48,322.154 M248.528,322.154c15.266,0,26.99-5.54,35.041-13.398
		c6.377-6.184,10.306-13.398,12.368-20.806l-24.091-8.052c-1.031,3.736-3.092,7.665-6.377,10.693
		c-3.929,3.736-9.276,6.377-16.941,6.377c-7.021,0-13.591-2.705-18.358-7.408c-4.767-4.96-7.665-12.174-7.665-21.257
		c0-9.276,2.899-16.297,7.665-21.257c4.702-4.767,11.144-7.214,18.165-7.214c7.408,0,12.561,2.448,16.297,6.184
		c3.092,3.092,4.96,7.021,6.184,10.95l24.542-8.245c-1.868-7.214-5.797-14.429-11.53-20.419
		c-8.245-8.052-20.226-13.785-36.072-13.785c-14.622,0-27.827,5.54-37.296,15.073c-9.469,9.662-15.266,23.125-15.266,38.778
		c0,15.653,5.991,29.051,15.653,38.778C220.25,316.614,233.648,322.154,248.528,322.154 M165.24,322.154
		c10.693,0,18.358-3.285,21.643-6.184v-22.287c-2.512,1.868-7.408,4.123-13.849,4.123c-4.573,0-7.859-1.031-10.306-3.285
		c-2.061-2.061-3.092-5.604-3.092-10.306v-94.367h-27.247v27.827h54.43v26.41h-54.43v46.829c0,9.469,2.899,17.134,8.052,22.481
		C146.238,319.062,154.74,322.154,165.24,322.154"/>
</g>
</svg>
