<?xml version="1.0" encoding="UTF-8"?>
<svg xmlns="http://www.w3.org/2000/svg" xmlns:xlink="http://www.w3.org/1999/xlink" width="1465.16pt" height="912.45pt" viewBox="0 0 1465.16 912.45" version="1.1">
<defs>
<clipPath id="clip1">
  <path d="M 0 781 L 1465.160156 781 L 1465.160156 912.449219 L 0 912.449219 Z M 0 781 "/>
</clipPath>
<clipPath id="clip2">
  <path d="M 0 0 L 1465.160156 0 L 1465.160156 132 L 0 132 Z M 0 0 "/>
</clipPath>
</defs>
<g id="surface1">
<g clip-path="url(#clip1)" clip-rule="nonzero">
<path style=" stroke:none;fill-rule:nonzero;fill:rgb(95.298767%,70.999146%,0%);fill-opacity:1;" d="M 0 912.449219 L 1465.160156 912.449219 L 1465.160156 781.101563 L 0 781.101563 Z M 0 912.449219 "/>
</g>
<g clip-path="url(#clip2)" clip-rule="nonzero">
<path style=" stroke:none;fill-rule:nonzero;fill:rgb(16.899109%,16.099548%,38.798523%);fill-opacity:1;" d="M 0 131.363281 L 1465.160156 131.363281 L 1465.160156 0.00390625 L 0 0.00390625 Z M 0 131.363281 "/>
</g>
<path style=" stroke:none;fill-rule:nonzero;fill:rgb(16.899109%,16.099548%,38.798523%);fill-opacity:1;" d="M 719.941406 276.082031 L 642.710938 637.148438 L 549.3125 637.148438 L 626.546875 276.082031 Z M 1112.921875 509.226563 L 1162.101563 373.628906 L 1190.378906 509.226563 Z M 1217.179688 637.148438 L 1303.558594 637.148438 L 1228.101563 276.082031 L 1148.421875 276.082031 C 1130.460938 276.082031 1115.339844 286.5 1108.621094 302.566406 L 968.476563 637.148438 L 1066.578125 637.148438 L 1086.039063 583.21875 L 1205.871094 583.21875 Z M 973.328125 519.261719 C 973.75 423.984375 841.621094 418.691406 842.492188 376.128906 C 842.769531 363.183594 855.109375 349.402344 882.097656 345.890625 C 895.472656 344.160156 932.386719 342.765625 974.230469 362.035156 L 990.597656 285.449219 C 968.109375 277.316406 939.203125 269.480469 903.222656 269.480469 C 810.882813 269.480469 745.921875 318.539063 745.394531 388.832031 C 744.796875 440.816406 791.796875 469.792969 827.128906 487.097656 C 863.570313 504.808594 875.773438 516.15625 875.589844 531.960938 C 875.324219 556.1875 846.523438 566.914063 819.71875 567.316406 C 772.734375 568.046875 745.519531 554.625 723.796875 544.492188 L 706.851563 623.65625 C 728.695313 633.664063 768.984375 642.359375 810.679688 642.816406 C 908.863281 642.816406 973.054688 594.332031 973.328125 519.261719 M 586.476563 276.082031 L 435.125 637.148438 L 336.402344 637.148438 L 261.902344 348.984375 C 257.402344 331.269531 253.457031 324.753906 239.726563 317.277344 C 217.257813 305.070313 180.191406 293.660156 147.589844 286.5625 L 149.792969 276.082031 L 308.738281 276.082031 C 328.96875 276.082031 347.199219 289.5625 351.839844 312.871094 L 391.191406 521.824219 L 488.339844 276.082031 "/>
</g>
</svg>
